<svg viewBox="0 0 512 256" xmlns="http://www.w3.org/2000/svg" xmlns:bx="https://boxy-svg.com">
    <path d="M 270.567 83 C 288.477 37.893 332.514 6 384 6 C 451.379 6 506 60.621 506 128 C 506 195.379 451.379 250 384 250 C 332.514 250 288.477 218.107 270.567 173" style="stroke: rgb(0, 0, 0); fill: none; stroke-width: 16px;"></path>
    <path d="M 4.59 110.786 L 33.66 110.786 C 33.99 110.786 34.275 110.906 34.515 111.146 C 34.755 111.386 34.875 111.671 34.875 112.001 L 34.875 141.071 C 34.875 141.401 34.755 141.686 34.515 141.926 C 34.275 142.166 33.99 142.286 33.66 142.286 L 24.84 142.286 C 24.509999999999998 142.286 24.224999999999998 142.166 23.985 141.926 C 23.745 141.686 23.625 141.401 23.625 141.071 L 23.625 120.506 L 14.625 120.506 L 14.625 141.071 C 14.625 141.401 14.505 141.686 14.265 141.926 C 14.025 142.166 13.74 142.286 13.41 142.286 L 4.59 142.286 C 4.26 142.286 3.9749999999999996 142.17333333333335 3.735 141.948 C 3.495 141.72333333333333 3.375 141.43099999999998 3.375 141.071 L 3.375 112.001 C 3.375 111.671 3.495 111.386 3.735 111.146 C 3.9749999999999996 110.906 4.26 110.786 4.59 110.786 Z" style="white-space: pre;"></path>
    <path d="M 425.516 110.786 L 433.886 110.786 C 434.216 110.786 434.501 110.906 434.741 111.146 C 434.981 111.386 435.101 111.671 435.101 112.001 L 435.101 125.231 L 444.911 111.686 C 445.361 111.086 445.946 110.786 446.666 110.786 L 453.956 110.786 C 454.286 110.786 454.571 110.906 454.811 111.146 C 455.051 111.386 455.171 111.671 455.171 112.001 L 455.171 141.071 C 455.171 141.401 455.051 141.686 454.811 141.926 C 454.571 142.166 454.286 142.286 453.956 142.286 L 445.586 142.286 C 445.25600000000003 142.286 444.971 142.166 444.731 141.926 C 444.491 141.686 444.371 141.401 444.371 141.071 L 444.371 128.831 L 434.561 141.341 C 434.081 141.971 433.481 142.286 432.761 142.286 L 425.516 142.286 C 425.18600000000004 142.286 424.901 142.166 424.661 141.926 C 424.421 141.686 424.301 141.401 424.301 141.071 L 424.301 112.001 C 424.301 111.671 424.421 111.386 424.661 111.146 C 424.901 110.906 425.18600000000004 110.786 425.516 110.786 Z" style="white-space: pre;"></path>
    <path d="M 442.841 103.811 L 447.296 103.811 C 447.866 103.811 448.151 104.006 448.151 104.396 C 448.151 105.806 447.461 106.99833333333333 446.081 107.973 C 444.701 108.94833333333334 442.72833333333335 109.436 440.163 109.436 C 437.5983333333333 109.436 435.626 108.94833333333334 434.246 107.973 C 432.866 106.99833333333333 432.176 105.806 432.176 104.396 C 432.176 104.006 432.461 103.811 433.031 103.811 L 437.486 103.811 C 437.936 103.811 438.221 104.006 438.341 104.396 C 438.521 105.146 439.091 105.521 440.051 105.521 C 441.01099999999997 105.521 441.656 105.146 441.986 104.396 C 442.166 104.006 442.45099999999996 103.811 442.841 103.811 Z" style="white-space: pre;"></path>
    <path d="M 397.032 122.936 L 397.032 130.136 C 397.032 131.36599999999999 397.44466666666665 132.311 398.27 132.971 C 399.0946666666667 133.631 400.212 133.961 401.622 133.961 C 403.03200000000004 133.961 404.1496666666667 133.62333333333333 404.975 132.948 C 405.79966666666667 132.27333333333334 406.212 131.321 406.212 130.091 L 406.212 122.981 C 406.212 121.75099999999999 405.79966666666667 120.79833333333333 404.975 120.123 C 404.1496666666667 119.44833333333334 403.03200000000004 119.111 401.622 119.111 C 400.212 119.111 399.0946666666667 119.441 398.27 120.101 C 397.44466666666665 120.761 397.032 121.706 397.032 122.936 Z" style="white-space: pre;"></path>
    <path d="M 418.362 123.791 L 418.362 129.281 C 418.362 132.371 417.612 134.951 416.112 137.021 C 414.612 139.091 412.647 140.561 410.217 141.431 C 407.787 142.301 404.922 142.736 401.622 142.736 C 398.322 142.736 395.457 142.301 393.027 141.431 C 390.597 140.561 388.632 139.091 387.132 137.021 C 385.632 134.951 384.882 132.341 384.882 129.191 L 384.882 123.881 C 384.882 119.351 386.43466666666666 115.961 389.54 113.711 C 392.6446666666667 111.461 396.672 110.336 401.622 110.336 C 406.572 110.336 410.5996666666667 111.461 413.705 113.711 C 416.80966666666666 115.961 418.362 119.321 418.362 123.791 Z" style="white-space: pre;"></path>
    <path d="M 362.069 119.156 L 362.069 124.106 L 367.784 124.106 C 368.474 124.106 369.03633333333335 123.896 369.471 123.476 C 369.90633333333335 123.056 370.124 122.471 370.124 121.721 C 370.124 120.971 369.91400000000004 120.35600000000001 369.494 119.876 C 369.074 119.396 368.50399999999996 119.156 367.784 119.156 L 362.069 119.156 Z" style="white-space: pre;"></path>
    <path d="M 351.134 110.786 L 367.964 110.786 C 372.224 110.786 375.599 111.821 378.089 113.891 C 380.579 115.961 381.824 118.616 381.824 121.856 C 381.824 125.09599999999999 380.774 127.66833333333334 378.674 129.573 C 376.574 131.47833333333335 373.004 132.431 367.964 132.431 L 362.024 132.431 L 362.024 141.071 C 362.024 141.401 361.904 141.686 361.664 141.926 C 361.424 142.166 361.139 142.286 360.809 142.286 L 351.134 142.286 C 350.80400000000003 142.286 350.519 142.166 350.279 141.926 C 350.039 141.686 349.919 141.401 349.919 141.071 L 349.919 112.001 C 349.919 111.671 350.039 111.386 350.279 111.146 C 350.519 110.906 350.80400000000003 110.786 351.134 110.786 Z" style="white-space: pre;"></path>
    <path d="M 309.594 110.786 L 340.644 110.786 C 340.974 110.786 341.259 110.906 341.499 111.146 C 341.739 111.386 341.859 111.671 341.859 112.001 L 341.859 119.246 C 341.859 119.576 341.739 119.861 341.499 120.101 C 341.259 120.341 340.974 120.461 340.644 120.461 L 330.969 120.461 L 330.969 141.071 C 330.969 141.401 330.849 141.686 330.609 141.926 C 330.369 142.166 330.084 142.286 329.754 142.286 L 320.484 142.286 C 320.154 142.286 319.86899999999997 142.166 319.629 141.926 C 319.389 141.686 319.269 141.401 319.269 141.071 L 319.269 120.461 L 309.594 120.461 C 309.264 120.461 308.979 120.341 308.739 120.101 C 308.499 119.861 308.379 119.576 308.379 119.246 L 308.379 112.001 C 308.379 111.671 308.499 111.386 308.739 111.146 C 308.979 110.906 309.264 110.786 309.594 110.786 Z" style="white-space: pre;"></path>
    <path d="M 282.731 122.936 L 282.731 130.136 C 282.731 131.36599999999999 283.1433333333333 132.311 283.968 132.971 C 284.79333333333335 133.631 285.87333333333333 133.961 287.208 133.961 C 288.54333333333335 133.961 289.511 133.751 290.111 133.331 C 290.711 132.911 291.21333333333337 132.296 291.618 131.486 C 292.0233333333333 130.676 292.556 130.271 293.216 130.271 L 302.936 130.271 C 303.206 130.271 303.43833333333333 130.3683333333333 303.633 130.563 C 303.8283333333333 130.75833333333333 303.926 130.99099999999999 303.926 131.261 C 303.926 134.051 302.606 136.601 299.966 138.911 C 298.646 140.05100000000002 296.891 140.97333333333333 294.701 141.678 C 292.511 142.38333333333333 289.931 142.736 286.961 142.736 C 283.991 142.736 281.2833333333333 142.27833333333334 278.838 141.363 C 276.3933333333333 140.44833333333335 274.406 138.94833333333335 272.876 136.863 C 271.346 134.77833333333334 270.581 132.221 270.581 129.191 L 270.581 123.881 C 270.581 120.851 271.346 118.286 272.876 116.186 C 275.75600000000003 112.286 280.571 110.336 287.321 110.336 C 290.051 110.336 292.511 110.68833333333333 294.701 111.393 C 296.891 112.09833333333333 298.646 113.021 299.966 114.161 C 302.606 116.471 303.926 119.021 303.926 121.811 C 303.926 122.081 303.8283333333333 122.31333333333333 303.633 122.508 C 303.43833333333333 122.70333333333333 303.206 122.801 302.936 122.801 L 293.216 122.801 C 292.556 122.801 292.0233333333333 122.396 291.618 121.586 C 291.21333333333337 120.776 290.711 120.161 290.111 119.741 C 289.511 119.321 288.54333333333335 119.111 287.208 119.111 C 285.87333333333333 119.111 284.79333333333335 119.441 283.968 120.101 C 283.1433333333333 120.761 282.731 121.706 282.731 122.936 Z" style="white-space: pre;"></path>
    <path d="M 265.317 140.801 C 265.407 140.921 265.452 141.101 265.452 141.341 C 265.452 141.581 265.3546666666667 141.79833333333332 265.16 141.993 C 264.9646666666667 142.18833333333333 264.732 142.286 264.462 142.286 L 254.787 142.286 C 253.977 142.286 253.362 141.941 252.942 141.251 L 248.577 134.546 L 244.302 141.251 C 243.852 141.941 243.237 142.286 242.457 142.286 L 232.737 142.286 C 232.46699999999998 142.286 232.23466666666667 142.18833333333333 232.04 141.993 C 231.84466666666668 141.79833333333332 231.747 141.581 231.747 141.341 C 231.747 141.101 231.792 140.921 231.882 140.801 L 241.827 125.591 L 232.962 112.271 C 232.87199999999999 112.151 232.827 111.97099999999999 232.827 111.731 C 232.827 111.491 232.92466666666667 111.27333333333333 233.12 111.078 C 233.31466666666668 110.88333333333334 233.547 110.786 233.817 110.786 L 243.537 110.786 C 244.317 110.786 244.947 111.161 245.427 111.911 L 248.937 117.671 L 252.717 111.821 C 253.227 111.131 253.842 110.786 254.562 110.786 L 264.237 110.786 C 264.507 110.786 264.73966666666666 110.88333333333334 264.935 111.078 C 265.12966666666665 111.27333333333333 265.227 111.491 265.227 111.731 C 265.227 111.97099999999999 265.18199999999996 112.151 265.092 112.271 L 255.687 126.176 L 265.317 140.801 Z" style="white-space: pre;"></path>
    <path d="M 206.999 133.511 L 224.954 133.511 C 225.28400000000002 133.511 225.56900000000002 133.631 225.809 133.871 C 226.049 134.111 226.169 134.396 226.169 134.726 L 226.169 141.071 C 226.169 141.401 226.049 141.686 225.809 141.926 C 225.56900000000002 142.166 225.28400000000002 142.286 224.954 142.286 L 196.514 142.286 C 196.184 142.286 195.899 142.166 195.659 141.926 C 195.419 141.686 195.299 141.401 195.299 141.071 L 195.299 112.001 C 195.299 111.671 195.419 111.386 195.659 111.146 C 195.899 110.906 196.184 110.786 196.514 110.786 L 224.504 110.786 C 224.834 110.786 225.119 110.906 225.359 111.146 C 225.599 111.386 225.719 111.671 225.719 112.001 L 225.719 118.346 C 225.719 118.676 225.599 118.961 225.359 119.201 C 225.119 119.441 224.834 119.561 224.504 119.561 L 206.999 119.561 L 206.999 122.396 L 222.029 122.396 C 222.359 122.396 222.644 122.516 222.884 122.756 C 223.124 122.996 223.244 123.281 223.244 123.611 L 223.244 129.461 C 223.244 129.791 223.124 130.076 222.884 130.316 C 222.644 130.55599999999998 222.359 130.676 222.029 130.676 L 206.999 130.676 L 206.999 133.511 Z" style="white-space: pre;"></path>
    <path d="M 156.594 110.786 L 187.644 110.786 C 187.97400000000002 110.786 188.25900000000001 110.906 188.499 111.146 C 188.739 111.386 188.859 111.671 188.859 112.001 L 188.859 119.246 C 188.859 119.576 188.739 119.861 188.499 120.101 C 188.25900000000001 120.341 187.97400000000002 120.461 187.644 120.461 L 177.969 120.461 L 177.969 141.071 C 177.969 141.401 177.849 141.686 177.609 141.926 C 177.369 142.166 177.084 142.286 176.754 142.286 L 167.484 142.286 C 167.154 142.286 166.869 142.166 166.629 141.926 C 166.389 141.686 166.269 141.401 166.269 141.071 L 166.269 120.461 L 156.594 120.461 C 156.26399999999998 120.461 155.97899999999998 120.341 155.739 120.101 C 155.499 119.861 155.379 119.576 155.379 119.246 L 155.379 112.001 C 155.379 111.671 155.499 111.386 155.739 111.146 C 155.97899999999998 110.906 156.26399999999998 110.786 156.594 110.786 Z" style="white-space: pre;"></path>
    <path d="M 141.7 110.786 L 149.935 110.786 C 150.26500000000001 110.786 150.55 110.906 150.79 111.146 C 151.03 111.386 151.15 111.671 151.15 112.001 L 151.15 141.071 C 151.15 141.401 151.03 141.686 150.79 141.926 C 150.55 142.166 150.26500000000001 142.286 149.935 142.286 L 141.79 142.286 C 141.45999999999998 142.286 141.17499999999998 142.166 140.935 141.926 C 140.695 141.686 140.575 141.401 140.575 141.071 L 140.575 127.121 L 137.29 133.601 C 137.11 133.96099999999998 136.84 134.23833333333332 136.48 134.433 C 136.12 134.62833333333333 135.76 134.726 135.4 134.726 L 132.34 134.726 C 131.82999999999998 134.726 131.41 134.591 131.08 134.321 C 130.75 134.051 130.54 133.811 130.45 133.601 L 127.165 127.121 L 127.165 141.071 C 127.165 141.401 127.045 141.686 126.805 141.926 C 126.565 142.166 126.28 142.286 125.95 142.286 L 117.805 142.286 C 117.47500000000001 142.286 117.19 142.166 116.95 141.926 C 116.71000000000001 141.686 116.59 141.401 116.59 141.071 L 116.59 112.001 C 116.59 111.671 116.71000000000001 111.386 116.95 111.146 C 117.19 110.906 117.47500000000001 110.786 117.805 110.786 L 126.04 110.786 C 126.88 110.786 127.52499999999999 111.191 127.975 112.001 L 133.87 122.801 L 139.765 112.001 C 140.215 111.191 140.85999999999999 110.786 141.7 110.786 Z" style="white-space: pre;"></path>
    <path d="M 91.032 122.936 L 91.032 130.136 C 91.032 131.36599999999999 91.44433333333333 132.311 92.269 132.971 C 93.09433333333334 133.631 94.212 133.961 95.622 133.961 C 97.032 133.961 98.14933333333333 133.62333333333333 98.974 132.948 C 99.79933333333334 132.27333333333334 100.212 131.321 100.212 130.091 L 100.212 122.981 C 100.212 121.75099999999999 99.79933333333334 120.79833333333333 98.974 120.123 C 98.14933333333333 119.44833333333334 97.032 119.111 95.622 119.111 C 94.212 119.111 93.09433333333334 119.441 92.269 120.101 C 91.44433333333333 120.761 91.032 121.706 91.032 122.936 Z" style="white-space: pre;"></path>
    <path d="M 112.362 123.791 L 112.362 129.281 C 112.362 132.371 111.612 134.951 110.112 137.021 C 108.612 139.091 106.64699999999999 140.561 104.217 141.431 C 101.787 142.301 98.922 142.736 95.622 142.736 C 92.322 142.736 89.457 142.301 87.027 141.431 C 84.59700000000001 140.561 82.632 139.091 81.132 137.021 C 79.632 134.951 78.882 132.341 78.882 129.191 L 78.882 123.881 C 78.882 119.351 80.43433333333334 115.961 83.539 113.711 C 86.64433333333334 111.461 90.672 110.336 95.622 110.336 C 100.572 110.336 104.59933333333333 111.461 107.704 113.711 C 110.80933333333333 115.961 112.362 119.321 112.362 123.791 Z" style="white-space: pre;"></path>
    <path d="M 56.068 119.156 L 56.068 124.106 L 61.783 124.106 C 62.473 124.106 63.035666666666664 123.896 63.471 123.476 C 63.90566666666667 123.056 64.123 122.471 64.123 121.721 C 64.123 120.971 63.913000000000004 120.35600000000001 63.493 119.876 C 63.073 119.396 62.503 119.156 61.783 119.156 L 56.068 119.156 Z" style="white-space: pre;"></path>
    <path d="M 45.133 110.786 L 61.963 110.786 C 66.223 110.786 69.598 111.821 72.088 113.891 C 74.57799999999999 115.961 75.823 118.616 75.823 121.856 C 75.823 125.09599999999999 74.773 127.66833333333334 72.673 129.573 C 70.573 131.47833333333335 67.003 132.431 61.963 132.431 L 56.023 132.431 L 56.023 141.071 C 56.023 141.401 55.903 141.686 55.663 141.926 C 55.422999999999995 142.166 55.138 142.286 54.808 142.286 L 45.133 142.286 C 44.803 142.286 44.518 142.166 44.278 141.926 C 44.038 141.686 43.918 141.401 43.918 141.071 L 43.918 112.001 C 43.918 111.671 44.038 111.386 44.278 111.146 C 44.518 110.906 44.803 110.786 45.133 110.786 Z" style="white-space: pre;"></path>
  </svg>
